Coordinates
version=1
nRows=19
nColumns=36
inDegrees=yes

Units are S.I. units (second, meters, Newtons, ...)
If the header above contains a line with 'inDegrees', this indicates whether rotational values are in degrees (yes) or radians (no).

endheader
time	pelvis_tilt	pelvis_list	pelvis_rotation	pelvis_tx	pelvis_ty	pelvis_tz	hip_flexion_r	hip_adduction_r	hip_rotation_r	knee_angle_r	knee_angle_r_beta	ankle_angle_r	subtalar_angle_r	mtp_angle_r	hip_flexion_l	hip_adduction_l	hip_rotation_l	knee_angle_l	knee_angle_l_beta	ankle_angle_l	subtalar_angle_l	mtp_angle_l	lumbar_extension	lumbar_bending	lumbar_rotation	arm_flex_r	arm_add_r	arm_rot_r	elbow_flex_r	pro_sup_r	arm_flex_l	arm_add_l	arm_rot_l	elbow_flex_l	pro_sup_l
      2.21666670	    -10.68248577	     -3.69798161	      4.43224416	     -0.23184814	      0.91902916	     -0.02943109	     36.08823978	      2.69246752	     -5.98510387	     37.83255706	      0.66030269	     22.18950327	      9.31618244	     -7.49999987	     51.81464715	    -11.56801582	     -0.55915435	     53.23476783	      0.92912198	     20.65498484	     -4.83627756	     -7.49999987	     -2.54065432	      3.76486038	     -2.48377247	     52.24509092	     -2.56666173	     66.07620355	    120.57065216	     93.69407903	     61.46372677	      1.11563516	     67.86984682	    120.74886790	    102.20024807
      2.23333330	    -10.18365883	     -4.01283599	      3.97704741	     -0.23331648	      0.91909667	     -0.02866928	     35.93841971	      3.40508596	     -6.30478398	     37.93140145	      0.66202785	     21.81734425	      9.48666297	     -7.49999987	     53.98103529	    -12.06732672	      0.00776061	     53.29164104	      0.93011460	     20.00412802	     -4.05825999	     -7.49999987	     -4.18848235	      4.51722316	     -1.99365176	     53.70314667	     -2.99657273	     67.14658357	    120.58770468	     93.43310349	     62.31807969	      1.62359381	     68.49431284	    120.12421061	    101.71477243
      2.25000000	     -9.38869811	     -4.37244933	      3.52683355	     -0.24114527	      0.91901025	     -0.02232529	     35.51925866	      4.25667672	     -6.38548275	     38.03656669	      0.66386332	     21.13669494	      9.03021020	     -7.49999987	     55.67072423	    -12.69545459	      0.60405365	     52.81760274	      0.92184107	     19.01256943	     -3.25260284	     -7.49999987	     -6.61610723	      5.21135490	     -0.98226798	     55.31503196	     -4.18442041	     66.57892469	    119.83342469	     94.24996675	     63.63173605	      1.57887502	     68.85075444	    119.24983499	    102.88597311
      2.26666670	     -8.74356473	     -4.82195580	      3.04386046	     -0.24232466	      0.91583246	     -0.02165324	     35.24405528	      5.08606598	     -6.66211632	     38.25916228	      0.66774835	     20.71783730	      8.90129263	     -7.49999987	     57.32956492	    -13.41508535	      1.47146524	     51.74167790	      0.90306264	     18.00793379	     -2.46466044	     -7.49999987	     -8.45518056	      6.02174400	     -0.37939828	     56.65056260	     -3.89857810	     67.13549099	    119.87705720	     94.34289163	     64.97392123	      1.78203129	     69.21761311	    119.18213627	    102.94958489
      2.28333330	     -8.49582412	     -5.24173219	      2.47537630	     -0.24918363	      0.90806145	     -0.01521058	     35.74819305	      5.84623367	     -6.85387749	     39.29062962	      0.68575085	     20.98935371	      8.92669232	     -7.49999987	     59.35590321	    -14.25736285	      2.47502470	     50.54625829	      0.88219863	     16.92444118	     -1.87596689	     -7.49999987	     -9.92460169	      6.76114059	      0.22331669	     57.59131136	     -4.11945621	     66.80942847	    119.63430550	     94.21487930	     66.64458889	      1.76996130	     68.95859985	    119.40760018	    102.74502650
      2.30000000	     -8.44636293	     -5.57526765	      1.84571007	     -0.24983605	      0.90767407	     -0.01445473	     36.45639495	      6.42269401	     -7.09266499	     40.54854083	      0.70770554	     21.58632964	      9.27018477	     -7.49999987	     61.10171945	    -14.97372796	      3.27030401	     48.90371573	      0.85353086	     15.79040113	     -0.93942510	     -7.49999987	    -11.10738767	      7.39673951	      1.03675479	     58.05305793	     -4.27051039	     66.82962727	    119.74295519	     94.40267269	     67.39394479	      1.62760629	     68.99509700	    119.94840845	    103.04388529
      2.31666670	     -9.16263899	     -5.83402272	      1.09049674	     -0.24916678	      0.90034345	     -0.01346621	     38.23809945	      6.79197839	     -7.34637484	     42.40527494	      0.74011167	     22.54280666	      9.98010953	     -7.49999987	     63.37447459	    -15.72077995	      3.93847984	     47.44434151	      0.82805997	     14.66082213	     -0.15824599	     -7.49999987	    -11.03608728	      7.94607776	      1.95964909	     58.59053423	     -4.54429800	     67.96746177	    120.82682715	     92.32815860	     67.55883063	      1.52668232	     68.54400118	    120.10046534	    101.33846863
      2.33333330	    -10.05812823	     -5.98241111	      0.26985143	     -0.26198309	      0.89321915	     -0.00371395	     40.69275848	      7.06908319	     -7.53146289	     44.98088830	      0.78506460	     23.53416155	     10.83055349	     -7.49999987	     65.81770341	    -16.51654966	      4.49502810	     46.01903960	      0.80318376	     13.67237030	      0.84235196	     -7.49999987	    -11.18309153	      8.13679966	      2.93178927	     59.69016298	     -4.14453251	     67.46568337	    120.40440399	     92.51124846	     68.18357175	      1.17031590	     68.07736933	    121.16419034	    101.47025794
      2.35000000	    -11.34797207	     -6.11300122	     -0.79409985	     -0.27263926	      0.88506876	     -0.00068429	     44.19343530	      7.31708940	     -7.80318586	     48.40359097	      0.84480203	     24.56411151	     12.02121577	     -7.49999987	     68.87203925	    -17.22519978	      5.28427976	     44.76157369	      0.78123684	     12.97076100	      2.18828156	     -7.49999987	    -11.20885147	      8.37511111	      3.97542045	     61.71919126	     -3.57577191	     66.11815325	    119.17205885	     92.52711484	     69.38554971	      0.94854097	     68.24265098	    121.82299898	    101.58406878
      2.36666670	    -12.55184082	     -6.14848245	     -1.57528629	     -0.27216412	      0.87436981	      0.00778844	     47.38460067	      7.55198692	     -8.14469189	     51.70889123	      0.90249040	     25.81631493	     12.84901223	     -7.49999987	     71.58947358	    -17.95208777	      6.15562242	     43.91818259	      0.76651689	     11.90689542	      2.80826277	     -7.49999987	    -10.77360806	      8.25037556	      4.83126407	     62.27983108	     -2.82513578	     65.31713296	    117.45154688	     91.51076218	     69.90077904	     -0.05056079	     68.56064461	    121.67438911	    100.70434594
      2.38333330	    -13.87449234	     -5.77335265	     -2.36115667	     -0.27053777	      0.86743718	      0.00946443	     50.42235517	      7.44789633	     -8.41573985	     54.72421353	      0.95511771	     27.21281786	     14.01915774	     -7.49999987	     73.90570596	    -18.50033536	      6.34921285	     43.19091125	      0.75382361	     10.83884882	      3.59494478	     -7.49999987	     -9.92545739	      7.83969967	      5.27511940	     61.42356461	     -2.65568222	     65.16379722	    117.59163520	     91.62689897	     69.56059702	     -0.97498416	     68.67860539	    122.55002340	    100.94744531
      2.40000000	    -15.23547036	     -5.23211254	     -2.99026061	     -0.26932025	      0.86012223	      0.01013387	     52.92127948	      7.31587814	     -8.40867160	     57.08457582	      0.99631380	     28.37868395	     14.41956497	     -7.49999987	     75.79837704	    -18.75399605	      6.12987602	     42.56187046	      0.74284478	      9.72734880	      4.28988477	     -7.49999987	     -8.63994630	      7.39786978	      5.73616735	     60.51797976	     -3.27230516	     65.54671781	    118.13049653	     91.81830580	     69.15556317	     -0.89737160	     68.54782110	    123.09494508	    101.20229071
      2.41666670	    -16.53265697	     -4.89066379	     -3.41435470	     -0.27385043	      0.84948662	      0.01555780	     55.25487964	      7.22190428	     -8.74452892	     59.16125195	      1.03255864	     29.32829957	     14.77073971	     -7.49999987	     77.70256725	    -19.04626882	      6.29748359	     41.79894748	      0.72952926	      8.60752361	      4.12974923	     -7.49999987	     -7.55783000	      6.85990765	      5.87088675	     60.71820619	     -3.11607370	     66.53089963	    118.63593582	     91.90324362	     70.05247221	     -0.97886772	     67.57100699	    122.60363214	    101.17432460
      2.43333330	    -17.58359381	     -4.72061224	     -3.63583777	     -0.27253769	      0.84248718	      0.01571604	     57.14346782	      7.28005654	     -9.10399137	     60.88997690	      1.06273058	     30.12940805	     14.60493818	     -7.49999987	     79.19422437	    -19.37639611	      6.27728679	     41.05393115	      0.71652627	      7.31189778	      3.77832722	     -7.49999987	     -6.96128230	      6.69482503	      5.97054096	     61.32070054	     -3.54541807	     69.00003905	    119.62825897	     92.01516087	     70.32660793	     -2.27975527	     66.31671052	    121.46056418	    101.19504020
      2.45000000	    -18.59975288	     -4.51146726	     -3.73767796	     -0.27157999	      0.83261688	      0.01640269	     59.00403413	      7.30926293	     -9.39501742	     62.64639925	      1.09338593	     31.14697302	     14.29471795	     -7.49999987	     80.84763789	    -19.44020308	      6.40888597	     40.96783456	      0.71502360	      6.43524322	      3.23690711	     -7.49999987	     -6.10532086	      6.68287926	      6.15591086	     62.30417186	     -3.54009374	     68.72821272	    119.25368122	     96.33187062	     70.93909607	     -1.05869737	     66.97168428	    123.34359351	    103.45214458
      2.46666670	    -19.56689193	     -4.36363192	     -3.79491716	     -0.27128997	      0.82742573	      0.01568548	     60.74834584	      7.30071045	     -9.58733134	     64.30002181	      1.12224709	     32.15396364	     14.11672575	     -7.49999987	     82.66476824	    -19.13591692	      6.90690997	     41.07805568	      0.71694732	      6.15380495	      2.84965423	     -7.49999987	     -5.94991452	      6.87161017	      6.41485332	     62.64379342	     -4.39467837	     69.02441122	    118.21619509	     95.39654636	     70.52603601	     -0.76659197	     68.48329982	    122.17608093	    102.80255758
      2.48333330	    -20.53414230	     -4.24183612	     -3.82889879	     -0.27036776	      0.81552845	      0.01594394	     62.75179367	      7.31105121	     -9.74892742	     66.22304458	      1.15581017	     33.09664251	     13.80743881	     -7.49999987	     84.66344855	    -18.77537683	      7.43587565	     41.42191823	      0.72294886	      6.02518375	      2.53023878	     -7.49999987	     -5.14968289	      7.02969232	      6.36047844	     62.81382552	     -4.51784315	     70.45161270	    119.25757565	     94.06569172	     70.89098161	     -0.04557622	     69.05327504	    121.43110756	    101.17126718
      2.50000000	    -21.46863945	     -4.19632303	     -3.71523369	     -0.27077775	      0.81085290	      0.01519174	     64.76863046	      7.22179851	    -10.07914925	     68.09587070	      1.18849715	     33.88023833	     13.46114929	     -7.49999987	     86.52164827	    -18.22427661	      8.05700393	     41.79431103	      0.72944834	      5.85043855	      2.13793701	     -7.49999987	     -4.60173966	      7.29599700	      6.20875888	     62.83883609	     -4.73520395	     71.87966657	    119.81796880	     93.58935625	     70.81360369	      0.41674794	     69.28919030	    120.93109612	    100.50151390
      2.51666670	    -22.18968627	     -4.32233954	     -3.60176139	     -0.27088797	      0.80658026	      0.01491268	     66.13442537	      7.28565736	    -10.42508322	     69.24191360	      1.20849937	     34.39870292	     13.00075341	     -7.49999987	     87.95109061	    -17.76213067	      8.48200960	     41.75981417	      0.72884625	      5.07638976	      1.71182426	     -7.49999987	     -4.37727534	      7.68128387	      6.72675721	     63.34902261	     -5.89200387	     71.65750222	    118.54898179	     93.09878248	     70.63471702	      0.67822366	     69.34107029	    119.67944639	    100.66774481
